HIERARCHY
ROOT Hips
{
	OFFSET -0.001795 -0.223333 0.028219
	CHANNELS 6 Xposition Yposition Zposition Zrotation Yrotation Xrotation 
	JOINT LeftUpLeg
	{
		OFFSET 0.069520 -0.091406 -0.006815
		CHANNELS 3 Zrotation Yrotation Xrotation
		JOINT LeftLeg
		{
			OFFSET 0.034277 -0.375199 -0.004496
			CHANNELS 3 Zrotation Yrotation Xrotation
			JOINT LeftFoot
			{
				OFFSET -0.013596 -0.397961 -0.043693
				CHANNELS 3 Zrotation Yrotation Xrotation
				JOINT LeftToe
				{
					OFFSET 0.026358 -0.055791 0.119288
					CHANNELS 3 Zrotation Yrotation Xrotation
					End Site
					{
						OFFSET 0.000000 0.000000 0.000000
					}
				}
			}
		}
	}
	JOINT RightUpLeg
	{
		OFFSET -0.067670 -0.090522 -0.004320
		CHANNELS 3 Zrotation Yrotation Xrotation
		JOINT RightLeg
		{
			OFFSET -0.038290 -0.382569 -0.008850
			CHANNELS 3 Zrotation Yrotation Xrotation
			JOINT RightFoot
			{
				OFFSET 0.015774 -0.398415 -0.042312
				CHANNELS 3 Zrotation Yrotation Xrotation
				JOINT RightToe
				{
					OFFSET -0.025372 -0.048144 0.123348
					CHANNELS 3 Zrotation Yrotation Xrotation
					End Site
					{
						OFFSET 0.000000 0.000000 0.000000
					}
				}
			}
		}
	}
	JOINT Spine
	{
		OFFSET -0.002533 0.108963 -0.026696
		CHANNELS 3 Zrotation Yrotation Xrotation
		JOINT Spine1
		{
			OFFSET 0.005487 0.135180 0.001092
			CHANNELS 3 Zrotation Yrotation Xrotation
			JOINT Spine2
			{
				OFFSET 0.001457 0.052922 0.025425
				CHANNELS 3 Zrotation Yrotation Xrotation
				JOINT Neck
				{
					OFFSET -0.002778 0.213870 -0.042857
					CHANNELS 3 Zrotation Yrotation Xrotation
					JOINT Head
					{
						OFFSET 0.005152 0.064970 0.051349
						CHANNELS 3 Zrotation Yrotation Xrotation
						End Site
						{
							OFFSET 0.000000 0.000000 0.000000
						}
					}
				}
				JOINT LeftShoulder
				{
					OFFSET 0.078845 0.121749 -0.034090
					CHANNELS 3 Zrotation Yrotation Xrotation
					JOINT LeftArm
					{
						OFFSET 0.090977 0.030469 -0.008868
						CHANNELS 3 Zrotation Yrotation Xrotation
						JOINT LeftForeArm
						{
							OFFSET 0.259612 -0.012772 -0.027456
							CHANNELS 3 Zrotation Yrotation Xrotation
							JOINT LeftHand
							{
								OFFSET 0.249234 0.008986 -0.001171
								CHANNELS 3 Zrotation Yrotation Xrotation
								End Site
								{
									OFFSET 0.000000 0.000000 0.000000
								}
							}
						}
					}
				}
				JOINT RightShoulder
				{
					OFFSET -0.081759 0.118833 -0.038615
					CHANNELS 3 Zrotation Yrotation Xrotation
					JOINT RightArm
					{
						OFFSET -0.096012 0.032551 -0.009143
						CHANNELS 3 Zrotation Yrotation Xrotation
						JOINT RightForeArm
						{
							OFFSET -0.253742 -0.013329 -0.021401
							CHANNELS 3 Zrotation Yrotation Xrotation
							JOINT RightHand
							{
								OFFSET -0.255298 0.007772 -0.005559
								CHANNELS 3 Zrotation Yrotation Xrotation
								End Site
								{
									OFFSET 0.000000 0.000000 0.000000
								}
							}
						}
					}
				}
			}
		}
	}
}
MOTION
Frames: 11
Frame Time: 0.050000
0.000000 0.951754 0.000000 -0.328368 2.898736 -3.551245 5.105371 0.104198 3.631472 -4.012118 0.415463 -2.386531 2.045645 8.539967 12.894317 0.000000 0.000000 0.000000 -3.305774 -0.188429 2.890841 1.474645 -0.203419 -1.370379 -3.727273 -12.093099 14.530752 0.000000 0.000000 0.000000 -2.255888 -0.112644 4.780277 3.810160 -0.509455 -19.992078 0.480899 -1.148906 24.157570 -2.609843 3.020242 -19.450245 0.000000 0.000000 0.000000 -19.105794 -9.719640 3.997156 -51.201101 -47.773206 13.678363 68.328675 -66.656425 -42.264003 0.000000 0.000000 0.000000 11.433805 15.867185 6.781117 53.367465 40.043043 11.417886 -54.312520 74.473927 -36.284073 0.000000 0.000000 0.000000 
0.000244 0.949875 0.001226 -1.007205 2.380953 -3.390634 5.930796 0.096927 4.308124 -4.215772 0.431404 -3.651816 2.362121 8.874310 12.455513 0.000000 0.000000 0.000000 -3.115071 -0.192223 2.930835 2.408849 -0.304371 -1.786029 -3.487809 -11.672836 14.169624 0.000000 0.000000 0.000000 -1.968914 -0.120108 4.685068 4.193155 -0.597176 -20.551574 0.484747 -1.625592 24.676197 -2.269145 2.681746 -19.495270 0.000000 0.000000 0.000000 -20.288158 -10.793707 4.851080 -50.186472 -48.762437 13.771948 68.282954 -61.898018 -38.423703 0.000000 0.000000 0.000000 12.369122 17.086710 7.317344 52.518154 41.087578 11.600405 -59.694163 73.741287 -40.429869 0.000000 0.000000 0.000000 
0.000366 0.949321 0.002393 -0.696624 1.839457 -3.418225 5.566269 0.112501 3.958648 -4.227082 0.441772 -2.663292 2.713662 9.308658 12.195631 0.000000 0.000000 0.000000 -3.769238 -0.160566 2.895927 2.910995 -0.347861 -1.633316 -3.252696 -11.261260 13.773511 0.000000 0.000000 0.000000 -1.554073 -0.137017 4.794084 4.017962 -0.521890 -21.187329 -0.240610 -0.627978 24.840060 -1.695041 2.376825 -18.264403 0.000000 0.000000 0.000000 -20.600149 -10.290350 4.394548 -53.523611 -49.347896 15.414148 68.362858 -61.427978 -38.185208 0.000000 0.000000 0.000000 13.208775 16.705927 7.359632 53.764312 43.810684 13.485598 -62.373301 70.245235 -39.735427 0.000000 0.000000 0.000000 
0.000209 0.948409 0.003630 -0.871178 2.523249 -4.218927 6.113791 0.106161 4.584571 -4.737275 0.480050 -2.260350 2.395476 8.738291 11.646968 0.000000 0.000000 0.000000 -3.748046 -0.229070 3.632018 3.257803 -0.381843 -1.061766 -3.578552 -11.721819 13.445340 0.000000 0.000000 0.000000 -2.242699 -0.129685 5.300090 4.795560 -0.691525 -21.750157 -0.567179 -1.417584 25.281475 -1.297542 2.070067 -18.894479 0.000000 0.000000 0.000000 -21.339034 -9.995257 4.364208 -56.102606 -50.618571 17.252308 65.952637 -59.210609 -34.695279 0.000000 0.000000 0.000000 13.014672 17.296208 7.551243 52.795176 46.149240 14.315676 -62.933460 63.977595 -35.848287 0.000000 0.000000 0.000000 
-0.000067 0.948633 0.005014 -0.960242 2.598870 -4.363787 5.918554 0.122229 4.757661 -4.168280 0.432246 -2.154382 2.385661 8.712424 11.572896 0.000000 0.000000 0.000000 -3.602462 -0.275594 4.161974 3.206743 -0.382671 -1.552269 -3.562671 -11.709356 13.590417 0.000000 0.000000 0.000000 -2.278243 -0.126637 5.163345 5.074738 -0.790053 -21.415379 -1.107692 -1.255391 24.604161 -0.934792 1.896248 -19.562467 0.000000 0.000000 0.000000 -21.273263 -10.228452 4.390001 -58.715302 -50.862088 18.666139 68.799949 -56.604001 -34.763883 0.000000 0.000000 0.000000 13.061996 17.153207 7.522746 53.165916 48.798116 15.992603 -62.262798 56.361701 -30.217000 0.000000 0.000000 0.000000 
-0.000403 0.948804 0.006327 -1.216456 2.901035 -4.774303 6.202096 0.122868 5.302691 -4.077015 0.421709 -2.280499 2.212791 8.444669 11.481409 0.000000 0.000000 0.000000 -3.404556 -0.327258 4.632209 3.403974 -0.404285 -1.385315 -3.660814 -11.869030 13.675854 0.000000 0.000000 0.000000 -2.348998 -0.115117 4.588301 5.202247 -0.846365 -21.055652 -1.262021 -1.739116 25.001822 -0.864628 1.780564 -19.150166 0.000000 0.000000 0.000000 -21.186910 -9.813787 4.241581 -55.992382 -52.135139 18.177931 67.433695 -51.799441 -30.600827 0.000000 0.000000 0.000000 12.211822 18.096577 7.803524 49.679761 51.150919 15.681403 -62.760140 47.834431 -25.230888 0.000000 0.000000 0.000000 
-0.000682 0.949458 0.007386 -1.235767 3.131072 -4.948189 6.258240 0.119839 5.401888 -4.068093 0.419498 -2.072258 2.064439 8.256699 11.579031 0.000000 0.000000 0.000000 -3.247244 -0.352081 4.805328 3.209682 -0.383824 -1.185361 -3.753090 -12.030970 13.820612 0.000000 0.000000 0.000000 -2.417381 -0.108374 4.305049 5.241247 -0.824128 -21.457939 -1.478731 -1.507701 25.314513 -0.254954 1.443310 -19.334152 0.000000 0.000000 0.000000 -19.515358 -10.230886 4.319696 -50.478241 -53.346675 16.307419 68.206488 -44.236218 -26.242836 0.000000 0.000000 0.000000 10.513987 17.490586 7.374056 45.242795 52.772421 14.502653 -62.782874 39.526388 -20.142503 0.000000 0.000000 0.000000 
-0.000842 0.950052 0.008041 -1.393890 3.346144 -5.276817 6.317382 0.115001 5.384297 -3.807261 0.395845 -1.416874 1.968632 8.110834 11.512660 0.000000 0.000000 0.000000 -2.839085 -0.397396 5.067489 2.820429 -0.340433 -0.907607 -3.846222 -12.194967 13.979429 0.000000 0.000000 0.000000 -2.194698 -0.106729 3.864691 5.292733 -0.888727 -20.691552 -1.863393 -1.191256 24.986522 0.020945 1.318991 -19.017697 0.000000 0.000000 0.000000 -18.294748 -10.798517 4.438386 -39.663244 -54.145009 11.865804 64.967171 -35.795493 -19.992682 0.000000 0.000000 0.000000 8.258527 17.300537 7.049431 37.062692 53.196838 11.137959 -62.062165 30.954848 -15.016032 0.000000 0.000000 0.000000 
-0.001009 0.950521 0.008134 -1.469671 3.574106 -5.594317 6.306012 0.115212 5.394578 -3.587011 0.373225 -0.892861 1.858731 7.950365 11.479065 0.000000 0.000000 0.000000 -2.667626 -0.425860 5.249714 2.689724 -0.322661 -0.563530 -3.941435 -12.357057 14.097321 0.000000 0.000000 0.000000 -2.335404 -0.118059 4.386913 5.067286 -0.764288 -21.548778 -1.527846 -0.996555 25.501392 0.387591 1.147824 -19.389455 0.000000 0.000000 0.000000 -14.997485 -11.258907 4.492604 -28.558513 -54.304867 7.104615 60.579576 -25.547223 -13.032572 0.000000 0.000000 0.000000 5.214373 16.425787 6.323654 26.969993 52.005475 6.543135 -58.218028 22.979953 -9.896998 0.000000 0.000000 0.000000 
-0.001216 0.951496 0.007755 -1.670798 3.937277 -5.407033 6.216698 0.091234 4.793380 -3.003431 0.311427 -0.393322 1.711645 7.778037 11.572064 0.000000 0.000000 0.000000 -2.299306 -0.445682 5.234782 2.490893 -0.307776 -0.912940 -4.068199 -12.596063 14.601532 0.000000 0.000000 0.000000 -2.233120 -0.128466 4.726899 4.944299 -0.683532 -22.136152 -1.680172 -0.780681 25.439461 0.760400 1.029242 -20.189489 0.000000 0.000000 0.000000 -12.422642 -10.635047 4.024773 -17.820540 -53.688095 2.543517 54.315571 -16.645550 -7.508513 0.000000 0.000000 0.000000 2.666134 15.469749 5.665659 17.574006 48.368057 2.414147 -52.637234 15.744970 -5.625380 0.000000 0.000000 0.000000 
-0.001380 0.952126 0.007183 -1.888909 4.128845 -5.320885 6.395511 0.062720 4.324771 -2.871592 0.292169 0.097246 1.629377 7.679499 11.613852 0.000000 0.000000 0.000000 -1.931986 -0.451207 5.080949 2.304602 -0.287538 -0.876925 -4.148237 -12.745073 14.907434 0.000000 0.000000 0.000000 -2.179859 -0.153813 5.647864 4.416658 -0.487656 -23.001533 -1.172195 -0.810792 25.755765 1.031657 0.870297 -20.311622 0.000000 0.000000 0.000000 -10.326869 -9.732192 3.562875 -9.749320 -51.024030 -0.755849 47.731647 -9.618271 -3.785175 0.000000 0.000000 0.000000 0.233935 13.583373 4.705791 12.656998 44.689720 0.491453 -48.091127 10.995052 -3.214075 0.000000 0.000000 0.000000 
